<svg width="136" height="35" viewBox="0 0 136 35" fill="none" xmlns="http://www.w3.org/2000/svg">
<path d="M36.7799 1.05164L25.7938 6.98475C25.6725 7.05383 25.5967 7.18431 25.5967 7.32247V11.2983C25.5967 11.5747 25.8696 11.7589 26.1198 11.6514L36.5449 7.19199C36.6889 7.13058 36.7799 6.99242 36.7799 6.83891V1.05164Z" fill="white"/>
<path d="M37.2533 9.61548L26.2975 14.2975C26.1535 14.3589 26.0625 14.4971 26.0625 14.6506V18.6495C26.0625 18.9104 26.3127 19.0946 26.5553 19.0179L36.9955 15.6177C37.1548 15.5639 37.2609 15.4181 37.2609 15.2492V9.61548" fill="white"/>
<path d="M36.7799 19.5493L25.8772 22.4966C25.7104 22.5427 25.5967 22.6962 25.5967 22.865V28.0767C25.5967 28.2993 25.7786 28.4758 25.9985 28.4604L36.4235 27.8771C36.6207 27.8694 36.7799 27.7006 36.7799 27.4933V19.5493Z" fill="white"/>
<path d="M37.9014 1.05164L47.174 6.97707C47.2877 7.04615 47.3483 7.16896 47.3483 7.29944V11.2446C47.3483 11.5286 47.0451 11.7205 46.7949 11.5823L38.1061 7.06918C37.9772 7.0001 37.9014 6.86962 37.9014 6.73146V1.05164Z" fill="#705FD3"/>
<path d="M37.9014 9.98596L47.136 14.6603C47.2649 14.7217 47.3483 14.8599 47.3483 15.0057V18.9893C47.3483 19.2579 47.083 19.4421 46.8328 19.35L38.144 15.9958C37.9999 15.9421 37.9014 15.7963 37.9014 15.6351V9.98596Z" fill="#705FD3"/>
<path d="M37.9014 19.5493L47.083 22.4813C47.2422 22.535 47.3483 22.6808 47.3483 22.8497V28.069C47.3483 28.2916 47.1664 28.4681 46.9465 28.4528L38.2577 27.8771C38.0606 27.8618 37.9014 27.6929 37.9014 27.4933V19.5493Z" fill="#705FD3"/>
<path d="M21.9267 28.614H16.7862C15.8233 28.614 15.1334 28.2456 14.7012 27.5011L9.46973 18.966C9.25744 18.6359 9.01482 18.3903 8.75704 18.2368C8.49925 18.0833 8.11258 18.0066 7.61218 18.0066H5.68639V28.614H0V0.767517H8.64331C10.5615 0.767517 12.2068 0.967079 13.5715 1.37388C14.9362 1.78068 16.0584 2.33331 16.9227 3.0548C17.7946 3.76861 18.4315 4.62826 18.8333 5.61839C19.2352 6.60853 19.4399 7.69844 19.4399 8.88813C19.4399 9.80918 19.311 10.6842 19.0532 11.5055C18.7954 12.3344 18.4163 13.0789 17.9235 13.762C17.4307 14.4375 16.8241 15.0438 16.1038 15.5658C15.3836 16.0877 14.5647 16.5098 13.6397 16.8322C14.0037 17.0394 14.3449 17.2851 14.6633 17.5691C14.9817 17.8607 15.2623 18.1984 15.5125 18.5976L21.9267 28.614ZM8.6054 13.9539C9.53039 13.9539 10.3265 13.8388 10.9937 13.6009C11.6609 13.3629 12.2144 13.0405 12.6465 12.6184C13.0787 12.2039 13.3895 11.7127 13.5943 11.1524C13.799 10.5921 13.8975 9.97804 13.8975 9.31028C13.8975 7.9901 13.4654 6.96927 12.601 6.2401C11.7367 5.51094 10.4175 5.15019 8.65089 5.15019H5.69397V13.9616H8.6054V13.9539Z" fill="white"/>
<path d="M52.0791 11.5745C53.2315 10.523 54.4977 9.7401 55.8851 9.22584C57.2726 8.70391 58.7814 8.45062 60.3963 8.45062C61.5564 8.45062 62.5951 8.64251 63.5125 9.02628C64.4299 9.41005 65.2032 9.94733 65.8477 10.6304C66.4846 11.3136 66.9774 12.1272 67.3186 13.0789C67.6597 14.023 67.8341 15.0592 67.8341 16.1875V28.6217H65.4458C64.953 28.6217 64.5739 28.5526 64.3161 28.4068C64.0584 28.2686 63.8461 27.9693 63.6793 27.5241L63.2623 26.2576C62.7695 26.6951 62.2918 27.0789 61.8293 27.409C61.3668 27.739 60.8892 28.023 60.3963 28.2456C59.9035 28.4682 59.3728 28.637 58.8117 28.7522C58.2507 28.8673 57.6214 28.921 56.9238 28.921C56.0671 28.921 55.2786 28.8059 54.5735 28.5756C53.8684 28.3454 53.2542 28 52.7463 27.5471C52.2307 27.0943 51.8364 26.5263 51.5635 25.8508C51.283 25.1754 51.1465 24.3925 51.1465 23.5098C51.1465 22.7807 51.3284 22.0515 51.6924 21.3223C52.0563 20.5932 52.6856 19.9331 53.5803 19.3344C54.4749 18.7357 55.6577 18.2445 57.1437 17.8607C58.6298 17.4693 60.4873 17.2467 62.724 17.2006V16.1875C62.724 14.944 62.4662 14.0383 61.9506 13.455C61.4351 12.8717 60.6844 12.58 59.714 12.58C58.9937 12.58 58.3947 12.6644 57.9095 12.841C57.4318 13.0098 57.0073 13.2017 56.6509 13.3936C56.287 13.5932 55.9534 13.7774 55.6349 13.9462C55.3165 14.1151 54.9526 14.2072 54.5356 14.2072C54.1716 14.2072 53.8608 14.1151 53.6182 13.9309C53.3755 13.7467 53.1633 13.5241 53.004 13.2708L52.0791 11.5745ZM62.7315 20.3399C61.4578 20.4013 60.3963 20.5164 59.5472 20.6776C58.698 20.8388 58.0308 21.046 57.5304 21.2993C57.03 21.5526 56.6812 21.8443 56.4689 22.1743C56.2566 22.5043 56.1581 22.8574 56.1581 23.2412C56.1581 24.0087 56.3704 24.5537 56.795 24.8684C57.2195 25.1908 57.8109 25.3443 58.5691 25.3443C59.441 25.3443 60.1992 25.1908 60.8361 24.8761C61.473 24.5614 62.1098 24.0701 62.7391 23.4101V20.3399H62.7315Z" fill="white"/>
<path d="M77.1895 0V28.614H71.958V0H77.1895Z" fill="white"/>
<path d="M99.6704 8.8269L89.1316 33.9256C88.9648 34.2863 88.7677 34.555 88.5326 34.7315C88.2976 34.908 87.9261 35.0001 87.4257 35.0001H83.5438L87.2437 27.0177L79.3965 8.8269H83.9835C84.4005 8.8269 84.7265 8.91901 84.954 9.11857C85.1814 9.31813 85.3482 9.53304 85.4468 9.79401L89.1619 19.2501C89.2984 19.6186 89.4273 19.9947 89.5334 20.3708C89.6396 20.7469 89.7457 21.123 89.8443 21.4914C90.0717 20.7392 90.3295 19.9793 90.6176 19.2271L94.0674 9.78633C94.1659 9.50234 94.3555 9.27208 94.6133 9.09554C94.8786 8.91901 95.1667 8.8269 95.4852 8.8269H99.6704Z" fill="white"/>
<path d="M113.454 12.8947C113.318 13.1096 113.174 13.2708 113.029 13.3629C112.885 13.455 112.688 13.5087 112.431 13.5087C112.18 13.5087 111.915 13.4473 111.657 13.3168C111.392 13.1864 111.096 13.0482 110.762 12.9024C110.436 12.7565 110.057 12.6184 109.633 12.4879C109.208 12.3574 108.723 12.296 108.162 12.296C107.313 12.296 106.661 12.4725 106.191 12.8256C105.721 13.1787 105.493 13.6392 105.493 14.2149C105.493 14.614 105.63 14.944 105.887 15.2127C106.145 15.4813 106.501 15.7116 106.941 15.9111C107.381 16.1107 107.874 16.2949 108.427 16.4638C108.981 16.6326 109.557 16.8245 110.141 17.0317C110.732 17.239 111.301 17.4769 111.854 17.7379C112.408 18.0065 112.908 18.3442 113.34 18.7434C113.772 19.1425 114.129 19.6337 114.394 20.2017C114.66 20.7697 114.788 21.4605 114.788 22.2664C114.788 23.2258 114.614 24.1085 114.265 24.9221C113.917 25.7357 113.409 26.4342 112.741 27.0252C112.074 27.6162 111.24 28.0767 110.239 28.4067C109.239 28.7368 108.094 28.9056 106.79 28.9056C106.122 28.9056 105.455 28.8442 104.803 28.7214C104.144 28.5986 103.522 28.4298 102.923 28.1995C102.331 27.9769 101.77 27.716 101.255 27.4243C100.739 27.1326 100.284 26.8103 99.9053 26.4649L101.118 24.4846C101.255 24.2543 101.429 24.0778 101.642 23.9473C101.854 23.8168 102.119 23.7554 102.445 23.7554C102.764 23.7554 103.052 23.8322 103.317 23.9934C103.582 24.1546 103.878 24.3234 104.212 24.5153C104.538 24.6995 104.932 24.876 105.379 25.0372C105.827 25.1984 106.388 25.2752 107.055 25.2752C107.563 25.2752 107.995 25.2138 108.359 25.1063C108.723 24.9912 109.026 24.8377 109.254 24.6381C109.481 24.4385 109.648 24.216 109.754 23.9627C109.86 23.7171 109.913 23.4561 109.913 23.1874C109.913 22.7499 109.777 22.3969 109.504 22.1206C109.231 21.8442 108.882 21.6063 108.442 21.3991C108.003 21.1918 107.502 21.0076 106.934 20.8464C106.365 20.6776 105.789 20.4934 105.197 20.2938C104.606 20.0866 104.037 19.8486 103.469 19.5646C102.908 19.2806 102.407 18.9276 101.968 18.4978C101.528 18.0679 101.179 17.5383 100.906 16.9166C100.633 16.2872 100.497 15.5274 100.497 14.6293C100.497 13.8081 100.656 13.0328 100.967 12.296C101.285 11.5592 101.755 10.9144 102.392 10.3464C103.021 9.78613 103.81 9.33328 104.75 9.00324C105.69 8.67319 106.782 8.50433 108.018 8.50433C109.405 8.50433 110.672 8.7346 111.809 9.19512C112.946 9.65565 113.879 10.2543 114.614 10.9989L113.454 12.8947Z" fill="white"/>
<path d="M122.248 19.5341C122.415 21.3916 122.93 22.7425 123.81 23.6021C124.689 24.4618 125.834 24.8916 127.252 24.8916C127.972 24.8916 128.594 24.8072 129.117 24.6306C129.64 24.4618 130.103 24.2622 130.497 24.055C130.891 23.8477 131.255 23.6559 131.574 23.4793C131.892 23.3028 132.218 23.2184 132.529 23.2184C132.931 23.2184 133.249 23.3719 133.477 23.6789L134.993 25.5977C134.44 26.2502 133.826 26.7874 133.158 27.2173C132.491 27.6471 131.794 27.9848 131.073 28.2304C130.353 28.476 129.625 28.6526 128.89 28.7523C128.154 28.8445 127.449 28.8982 126.767 28.8982C125.402 28.8982 124.128 28.6679 122.946 28.2151C121.763 27.7622 120.732 27.0868 119.852 26.2041C118.973 25.3138 118.283 24.2085 117.775 22.896C117.267 21.5758 117.017 20.0484 117.017 18.3061C117.017 16.9629 117.236 15.6964 117.669 14.5067C118.101 13.317 118.73 12.2809 119.557 11.3982C120.375 10.5155 121.376 9.81705 122.551 9.29512C123.727 8.77319 125.053 8.5199 126.532 8.5199C127.783 8.5199 128.935 8.71946 129.989 9.12626C131.043 9.52538 131.953 10.1164 132.719 10.8839C133.484 11.6515 134.076 12.5956 134.5 13.7162C134.925 14.8368 135.137 16.1109 135.137 17.5462C135.137 17.9453 135.122 18.2677 135.077 18.5287C135.039 18.782 134.978 18.9892 134.887 19.1427C134.796 19.2962 134.675 19.4037 134.523 19.4574C134.371 19.5111 134.174 19.5418 133.932 19.5418H122.248V19.5341ZM130.474 16.3872C130.474 15.8346 130.399 15.3127 130.255 14.8138C130.11 14.3149 129.875 13.8774 129.565 13.4936C129.246 13.1098 128.852 12.8028 128.367 12.5802C127.889 12.3576 127.313 12.2425 126.638 12.2425C125.387 12.2425 124.409 12.6032 123.696 13.317C122.991 14.0309 122.529 15.0594 122.316 16.3872H130.474Z" fill="white"/>
</svg>
